<svg xmlns="http://www.w3.org/2000/svg" width="500" viewBox="-46.7525 22.3475 505.42084 201.89712" height="200">
  <path d="M453.379 35.729s-1.921.456-2.921.766m0 0s-1 .26-3 .612m0 0s-1 .298-2 .528m0 0s-1 .192-3 .807m0 0s-1 .223-1.446.287m0 0s-1.554.268-3.554.909m0 0s-.432.091-2 .544m0 0s-1 .317-2 .502m0 0s-2 .711-2.956 1.045m0 0s-.044.015-2.044.585m0 0s-1 .315-2 .602m0 0s-2 .68-2.562.813m0 0s-1.438.435-2.438.783m0 0s-1 .27-3 .799m0-.001s-1 .296-1.814.419m0 0s-1.186.022-2.302-1m0 0s-.884-1.673-1.649-4m0 0s-.503-2-1.021-4m0 0s-.44-2-.688-4m0 0s-.488-2-.938-4m0 0s-.53-2-.667-3m-1.794 2s.873 3.811 1.55 7m0 0s.622 3 1.323 5.836m0 0s.457 3.164.658 5.164m0 0s-.49 2-.84 3m0 0s-.94 1-2.184 2m0 0s-1.501 1-2.634 1.774m0 0s-.385.226-2 1.193m0 0s-1 .617-1.872 1.033m0 0s-1.128.525-2.399 1m0 0s-1.73.435-2.73.752m.001 0s-1 .142-1.908.248m0 0s-2.092.094-3.092.1m0 .001s-1-.052-2-.159m0 0s-2-.094-3-.134m0 0s-1-.1-3-.34m0 .001s-1-.087-2-.145m0 0s-2-.082-3-.147m0 0s-1-.056-2-.075m0-.001s-1.76-.101-3-.147m0 0s-1-.114-3-.463m0 0s-1-.148-2-.292m0 0s-1 .021-3-.14m0 0s-.45-.059-2-.23m0-.001s-1-.13-3-.425m0 0s-1-.116-2-.213m0 0s-2-.178-2.072-.19m0 0s-1.928-.317-2.928-.462m0 0s-2-.473-2.29-.538m0 0s-1.71-.372-2.71-.625m0 0s-1.381-.375-3-1.368m0 0s-.421-1.007-.918-3.007m0 0s-.142-3-.033-5m0 0s.38-3 .667-6m0 0s-.13-3-.168-5m0 0s.044-2 .027-5m-.001 0s-.022-2-.11-4m-2.3 0s.233 3 .503 6m0 0s-.096 3-.24 5m-.001 0s-.1 3-.207 5m0 0s-.176 3-.414 5m0 0s-.371 2-.805 3.558m0 0s-.724 1.442-1.506 2.442m0 0s-1.31 1-2.494 1.25m0 0s-2 .083-3 .108m0 0s-1-.094-2-.106m0 0s-2 .003-3-.02m0-.001s-1-.027-2-.088m0 0s-2-.027-3-.108m0 0s-.334-.035-2-.144m0 0s-2-.2-3-.222m0 0s-1-.004-2-.084m0 0s-2-.321-3-.452m0 0s-1-.03-2-.036m0 0s-2-.022-3-.042m0 0s-1-.143-2-.206m0 0s-2-.106-3-.172m0 0s-1-.131-3-.352m0 0s-1-.085-2-.142m0 0s-1-.033-3-.084m0 0s-1-.06-1.277-.099m0 0s-1.723-.195-3.723-.467m0 0s-1-.062-2-.217m0 0s-1-.152-2.583-.316m0 0s-1.417-.269-2.417-.705m0 0s-.635-.295-2-1.949m0 0s-.399-1.346-.612-3.346m0 0l.076-6m0 0s-.017-2-.132-5m0 0s-.035-2-.199-4m-2.175-3s.12 3 .184 6m0 0s-.036 2-.142 4.485m0 0s-.063 2.515-.105 5.515m0 0s-.305 2-.743 4m0 0s-.91 2-1.962 3m0 0s-1.19.538-2.19.753m0 0s-1 .122-2 .27m0 0s-2 .079-3 .124m0 0s-1 .044-3 .157m0 0s-1 .1-2 .123m0 0s-1 .024-3 .13m0-.001s-1 .04-2 .044m0 0s-1 .043-3 .215m0 0s-1 .029-2 .02m0 0s-1-.01-3-.152m0 0s-1-.05-2-.137m0 0s-1-.024-3 .135m0 0s-1-.047-2 .006m0 0s-1-.05-3-.117m0 .001s-1-.005-2 .052m0 0s-1 .044-3 .017m0 0s-1 .042-2 .057m0 0s-1-.019-3-.043m0 0s-1 0-2-.01m0 0s-1-.126-3-.504m0 .001s-.64-.141-2-1.07m0 0s-.234-1.071-.62-4.071m-.001 0s-.16-2-.214-4m0 0s.454-3 .463-6m0 0s-.2-2-.241-4m0 0s-.082-3-.083-5m-2.234 0s-.006 3 .02 5m.001 0s-.065 3 .024 5m0 0s-.01 3-.022 5m-.001 0s-.126 2-.58 5m0 0s-.491 2-1.512 3.393m0 0s-.764.607-2 .967m0 0s-2 .404-3 .443m0 0l-2 .068m0 0s-2 0-3-.005m0 0l-2-.002m0 0s-2-.114-3-.15m0 0s-1-.033-2-.12m0 0s-2-.104-3-.162m0-.001s-1-.037-2-.003m0 0s-2-.133-3-.203m0 0s-1 .017-3-.06m0 0s-1-.053-2-.074m0 0s-1 .003-3-.077m0 0s-.158-.014-2-.142m0 0s-1 .06-2 .173m0 0s-1.774-.045-2.61-.045m0 0s-1.39-.06-3.39-.17m0 .001s-1-.124-2-.186m0 0s-1 .1-3-.157m0 0s-1-.219-2-.344m0 0s-1-.033-2-.265m0 0s-2-.322-3-.537m0-.001s-1-.202-2-.584m0 0s-1-1.504-1.107-3.757m-.001 0s.107-2 .946-6m0 0s.162-1.69.734-5m0 0s.652-3 1.15-6m-2.565 1s-.263 2-.852 5m0 0s-.305 1.726-.814 4m.001 0s-.428 2-1.011 4m0 0s-.481 1.53-1.087 3m0 0s-.394 1.005-2.247 3m0 0s-1.147.47-2.147.736m0 0s-1 .076-3 .21m0 .001s-1 .001-1.817.053m-.001 0s-1.182.03-3.182.03m0 .001s-1 .01-2 .014m0 0s-1-.018-2-.079m0 0s-2 .125-3 .145m0 0s-1-.03-3-.015m0 0s-1 .022-2 .02m0 0s-1 0-3-.018m0 0s-1 .022-2 .002m0 0s-1-.045-2.397-.1m0 0s-1.603-.046-2.603-.087m0 0s-1-.1-3-.185m0 0s-1 .06-2 .061m0 0s-1-.05-3-.196m0 0l-2-.106m0 0s-1-.04-3-.26m0 0s-1-.1-2-.097m0 0s-1 .115-3 .144m0 0s-1 .004-2-.014m0 0s-1-.08-3-.2m0 0s-.554-.06-2-.286m0 0s-1-.287-2.415-.774m0 0s-1.143-1-1.62-2m-.001 0s-.077-3 .183-5m0 0s.887-3 1.166-6m-.001 0s.512-3 .89-6m-2.097-1s-.422 3-.855 5m0 0s-.203 2-.564 4m0 0s-.433 2-.829 4m0 0s-.637 2-1.248 4m0 0s-.61 1.062-1.61 2.13m.001.001s-1.907.869-3 .978m0 0s-1 .014-3 .05m0-.001s-1 .096-2 .167m0 0s-1-.01-3-.139m0 0s-1-.032-2 .023m0 0s-1-.041-3-.107m0 0s-1-.026-2-.027m0 0s-1 .017-3 .071m0 0s-1-.134-2-.313m0 0s-1-.136-3-.365m0 0s-1-.079-2-.113m0 0s-1-.03-3-.14m0-.001s-1-.043-2-.082m0-.001s-1-.007-3-.045m0 0s-1-.032-2-.038m0 0s-1-.036-2-.088m0 .001s-2-.036-3-.052m0 0s-1-.013-3-.166m0 0s-1-.054-2-.065m0 0s-1 .021-3-.003m0 0s-1-.04-2 .024m0 0s-1-.024-3-.374m0 0s-1-.069-2 .056m0 0s-1 .162-3 .253m0 0s-1-.075-2-.158m0 0l-3-.291m0 0s-1 .027-2 .107m0-.001s-1-.058-3-.213m0 0s-.538-.078-2-.425m0 0s-1-.438-2-1.542m0 0s0-1.55 1-4.794m0 0s1.152-3.317 2.798-7.317m-1.669-3s-.761 2-1.13 3.022m.001 0s-.925 1.978-1.917 3.978m0 0s-.39 1-1.083 2.278m0 0s-.953 1.722-2 3.332m0 0s-1 1.284-1.976 2.39m0 0s-1.024.7-2.024 1.172m0 0s-2 .545-3 .726m0 0s-1 .199-3 .676m0 0s-1 .112-2 .187m0 0s-1 .065-3 .174m0 0s-.845.065-2 .133m0 0s-1 .006-3 .01m0 .001s-1 .008-2 .025m0 0l-3 .002m0 0s-1-.004-2 .015m0 0s-1 .012-3 .054m0 0s-1 .03-2 .065m0 0s-1 .03-3 .08m0-.001s-1-.023-2-.057m0-.001s-1 .008-3-.005m0 0s-1-.07-2-.134m0-.001s-1-.027-3-.05m0 0s-.567-.071-2-.194m0 0s-1-.13-3-.386m0 0s-1-.184-2-.36m0 0s-1-.062-2-.241m-1 5.431s1 .11 2 .213m0 0s2 .243 3 .335m0 0s1 .05 1.763.131m-.001 0s2.238.355 3.238.644m0 0s1 .223 1.528.356m0 0s1.472.82 2.472 1.899m0 0s.832 1.101 1.741 2.101m.001 0s1.258.967 2.258 1.777m0 0s.403.223 2 1.042m0 0s1 .421 2.65 1.181m-.001 0s.35.164 1.541 1m0 0s1.81.776 2.81.979m0 0s1 .305 2 .693m0-.001s1 .44 2.18 1.329m.001 0s1.225 1 1.819 1.554m0 0s1 .963 2 1.998m0-.001s1 1.01 2 1.921m0 0s.598.528 1.686 1.528m0 0s1.101 1 2.159 2m0 0s1.033 1 1.155 1.125m0 0s1 1.065 2 2.008m0 0s1 .986 2 1.935m0 0s1 .864 2 1.83m0 0s1 .878 2 1.735m0 0s.478.367 1.625 1.367m0 0s1.128 1 2.249 2m0 0l1.236 1m0 0s1.075 1 2.18 2m0 0s1.197 1 2.555 2m0 0s.155.108 1.282 1m0 0s1.142 1 2.358 2m0 0l1.515 1.192m0-.001s1 .88 2.124 1.809m0 0s.876.814 1.876 1.805m0 0s1 .935 2 1.69m0 0s.655.505 1.828 1.505m0 0s1.106 1 2.172 1.917m0 0s.101.083 1.25 1.083m0 0s1.085 1 2.295 2m0 0s1.136 1 1.455 1.364m0 0s1 1.285 2 2.198m0 0s.798.438 3 1.35m0 0s.207.088 2 .968m0 0s.253.12 2 1.048m0 0s1 .572 1.896 1.072m0 0s1.104.674 2.104 1.167m0 0s1 .664 2 1.22m0 .001s1 .616 2 1.615m0 0s2 .688 2.8.997m0 0s1.2.588 2.017 1m0 0s1.183.688 1.83 1m-.001 0s1.354.786 2.354 1.348m0 0s1.098.652 2.777 1.652m0 0s.223.114 2.152 1m0 0s1.07.535 2.07.982m.001 0s1 .574 1.873 1.018m0 0s1.127.733 2.127 1.178m0 0s1.576.822 2 1.019m0 0s1.282.803 2.92 1.803m-.001 0s.08.047 1.602 1m.001 0s1.423 1 2.478 1.87m0-.001s.17.13 1.422 1.13m0 .001s1.18 1 2.262 2m0 0s.316.326 1.316 1.372m0 0s1 .92 2 1.899m0 0s1 .99 1.77 1.729m0 0s1.047 1 2.23 1.889m0 0s1 1.008 1.083 1.11m-.001.001s.918 1.165 1.918 2.142m0-.001s1.044.859 2.14 1.859m0 0s.86.806 1.86 1.77m0 .001s1 1.108 1.828 2.229m0 0s.172.291 1.172 1.468m0 0s1.107.532 2.717 1.532m0 0s.283.282 1.283 1.73m0-.001s.932 1.27 2 1.906m0 0s1 .333 2 .737m0-.001s1 .677 2.358 1.629m0 0s.642.538 1.642 1.514m0 0s1 .666 3 .91m0-.001s1 .432 1.362.577m0 0s1.638.806 2.638 1.237m0 0s1 .633 2 1.335m0-.001s1 .581 2.264 1.429m0 0s.736.652 1.736 1.555m0 0s1 .508 3 .76m0-.001s1 .474 1.517.686m0 0s1.483.8 2.483 1.193m0 0s1.5.807 2 1.049m0 0s1.218.758 3 1.702m0 0s.166.056 2 .983m0 0s1 .624 1.677 1.073m0 0s1.282 1 2.323 1.79m0 0s1 .473 2 1.127m0 0s1 .76 2 1.547m0 0s1 .831 1.796 1.536m0 0s1.011 1 1.976 2m0 0s.812 1 1.228 1.577m0 0s1 1.277 2 2.177m0 0s1 .705 1.844 1.246m0 0s1.156.952 2.156 1.826m0 0s1 .789 2 1.735m0 0s.438.439 1.513 1.439m0 0s1.19 1 2.201 2m0 0s.952 1 1.286 1.338m0 0s1 .97 2 1.923m0 0s1 1.122 1.51 1.739m0 0s.79 1 1.61 2m0 0s1.077 1 2.097 2m0 0s.783.925 1.604 2m.001 0s.709 1 1.178 1.869m0 0s1 1.546 1.43 2.13m0 .001s.821 1 1.717 2m0 0s1.193 1 1.853 1.39m0 0s1.066.61 3 1.357m0 0s.74.253 2 .813m0 0s1 .422 2 2.365m0 0s.025.075.097 2.075m.001 0l.526 2M453.458 83.672s-2-.722-2.835-.943m0 0s-1.165-.324-2.165-.665m0 0s-1.171-.335-3-1.038m0 0s-.898-.297-2-.612m0 0s-1-.451-2-.774m0 0s-2-.768-2.449-.911m.001 0s-1.552-.558-2.552-.94m0 0s-1-.32-3-1.04m0 .001l-2-.929m0 0s-1-.361-2-.85m0 .001s-1-.399-3-1.17m0 0s-.287-.073-2-.909m0 0s-.344-.164-2-.998m0 0s-1-.332-2.888-1.166m0 0s-.112-.042-2.112-.987m0 0l-1.956-1.013m0 0l-2.044-1.353m0 0s-.885-.647-2-1.532m0 0s-1-.697-2-1.405m0 .001s-.842-.711-1.869-1.711m.001 0s-.838-1-1.305-2m0 0s.013-2 1.06-4m0 0s1.994-2 5.017-4m0 0s3.692-2 8.096-3.97m0 .001s4-1.62 7-2.676m0 0s3.913-1.355 7-2.295m0 .001s3-.847 6-1.806m0 0s3-.901 4.333-1.255m0 0s3.667-.889 5.667-1.221m0 0s3-.67 4-.834m-1 94.036s-2-.273-3-.542m0 0s-1.438-.439-3-1.018m0 0s-1-.36-2-.566m0 0s-2-.598-3-.81m0-.001s-.185-.044-2-.584m0 .001s-1-.329-2.93-1.461m0 0s-.07-.037-2.07-.172m0 0s-1-.105-3-.771m0 0s-.199-.057-2-.622m0 0s-1-.241-2-.503m0-.001s-2-.604-3-.826m0 0s-.228-.105-2-.895m0 0s-1-.406-2.957-1.21m-.001 0s-.042-.016-2.042-.981m0 0s-1-.464-2-.88m0-.001s-1-.076-3-.936m0-.001s-.36-.201-1.52-1.201m0 0s-.577-1-.866-3m0 0s-.015-2 .078-4m0 0s.082-2 .308-3.27m0 0s.25-2.73.172-3.73m0 0s-.056-2 .057-4m0 0s.087-1 .25-3m0 0s.117-2 .205-3m0 0s.132-2 .184-3m0 0s.132-1.493.582-4m0 0s-.023-1 .16-3m-.001 0s.099-1 .316-3m0 0s.145-1 .55-3m.001 0s.246-1 .524-2.21m0 0s1.392-1.79 7-.952m0 0s10 3.535 19 6.979m0 0s5.906 2.183 11 4.138m0 0s5 1.852 7 2.156m-4.08 76.889s-1.037 1-2.043 2m0 0s-.877.937-1.877 1.765m0 0s-1 .923-2 1.868m0 0s-.416.367-1.63 1.367m0 0s-1.175 1-2.37 1.975m0 0s-.041.025-1.811 1.025m0 0s-1.19.344-3.19.31m.001 0s-1-.248-2-.516m0 0s-1.718-.794-3-1.42m0-.001s-1-.402-3-1.238m0 0s-1-.359-2.705-1.135m0 0s-1.295-.618-2.107-1m0 0s-1.701-1-3.188-1.88m0 .001s-.617-.121-2-.584m0 0s-1.194-.537-3-1.313m0 0s-.623-.224-2-.855m0 0s-1-.408-3-1.336m0 0l-2-.798m0 0s-.745-.235-3-1.066m0 0s-.55-.17-2-.703m0 0s-1-.363-2-.581m0 0s-1.722-.885-2-1.266m0 0s-.806-1.62-1.067-3.62m0 .001s-.104-2-.248-5m0 0s-.132-2-.01-4m.001 0s.015-2-.122-4m0 0s-.085-1-.079-3m0 0s.363-2 1.015-4m0 0s.582-2 1.605-4m0 0s.969-2 2.738-5m-.001 0s1.168-1.845 2.168-3.35m0 .001s2-1.847 18 2.458m0 0s12.749 3.891 20 5.965" fill="none" stroke="#000" stroke-width=".505"/>
  <path d="M446.443 132.76s5.198 1.356 10.395 6.365" fill="none" stroke="#000" stroke-width=".42078519"/>
  <path d="M452.458 214.056s-1-.143-2-.222m0 0s-1.14-.105-3-.836m0 0s-.612-.269-2-1.258m0 0s-.912-1.011-1.717-2.011m-.001 0s-.282-.392-1.282-1.998m0 0s-.451-2.002-1-2.784m0 0s-.35-1.218-.103-3.218m0 0s.163-1 .57-3m-.001 0s.373-2 .534-2.462m0 0s.79-2.538.39-3.538m0 0s-.224-1-.074-3m0 0s.037-1 .053-2m0 0s-.109-2-.102-3m0 0s.091-1 .032-3m0 0s-.11-1 .172-2m0 0s.529-1.204 1.529-2.293m0 0s1.892-1.707 2.952-2.707m0 0s1.33-1 2.655-2m0 0s1.393-1.146 2.497-2m0 0s.992-1 1.896-2.04m0 .001s2-1.918 2.978-2.961m-265.891 56s.698-2 .908-3m0 0s1.005-1.048 3.005-1.19m0 0s1 .087 3 .512m0-.001s1 .287 3 .573m0 0s.723.106 3 .727m0 0s1 .204 2 .326m0 0s1 .237 3 .854m0 0s.704.199 2 .73m0 0s2 .462 2.05.469m10.288 0s-.29-2-.174-3m0 0s.65-2 .836-2.584m0 0s.586-1.416 1-2.365m0 0s.37-1.051.988-3.051m0 0s.012-.067.43-2m0 0s.333-1 .536-2m0 0s.226-1 .886-3m0 0s.16-.646.546-2m0 0s.152-1 .414-3m0 0s.125-1 .2-1.421m0 0s.367-1.579.91-3.579m.001 0s.089-.243.92-2m-.001 0s.17-.798.317-2m0 0s.481-1 1.548-2m0 0s1.305-.48 3.305-.943m0 0s1-.168 3-.523m0 0s2-.418 2.674-.534m0 0s2.326-.4 3.326-.574m0 0s2 .245 3 .199m0 0s1-.673 3-1.464m0 0s.7-.161 3-.557m0 0l2-.506m0 0s1-.22 3-.307m0 0s1-.47 2-1.047m0 0s1.86-.744 2-.784m0 0s2-.23 4-.039m0 0s1 .458 2 1.224m0 0s2 2.576 3.02 3.855m-.001 0s1.702 3 2.98 5.66m.001 0s1 2.154 2 4.478m0 0s1 2.47 2 4.315m0 0s1 2.059 2 4.008m0 0s1 1.98 2 4.484m0 0s1 1.404 2 2.583m0 0s.878 1.472 2 3.179m0 0s.837 1.293 1.962 3.293m0 0s.508 1 1.129 2m0 0s1.909 1.967 1.981 2m4.063 0s-.856-2-2.135-2.694m0 0s-.56-.306-1.723-1.306m0 0s-.842-1-1.55-2m-.001 0s-.7-1-1.553-2m0 0s-.768-1-1.561-2m0 0s-.612-.81-1.303-2m0 0s-.48-1-1.092-2m0 0s-.504-1-1.217-2.24m0 .001s-1-1.662-1.055-1.761m0 0s-.945-1.832-1.57-3m-.001 0s-.374-.775-.892-2m0 0s-.41-1-.604-2m0 0s-.878-1.863-.977-2m0 0s-.93-1-1.703-3m0 0s-.198-.5-.909-2m0 0s-.29-.757-1.205-3m0 0s-.084-.3-.398-2m0 0s.27-1 1.863-2m0 0s3.45-.71 5.45-1.716m.001 0s2-.488 5-1.242m0-.001s2-.788 3-1.384m0 0s1.676-.657 4.057-.657m0 0s.943-1.001 2.943-1.86m0 .001s2-.624 3.436-1.141m0 0s2.564-.807 3.36-1m0 0s2.204-.811 3.204-1.056m0 0s2-.323 4-.539m0 .001s1-.656 3-1.358m0 0s1-.23 3-.854m0 0s1-.146 3-.597m0 0s1-.282 3-.487m0 .001s2 .67 3 1.198m0 0s2.908 1.69 4.068 2.69m0 .001s2.16 2 3.946 4m0 0s1.229 5-1.221 17m0 0s-1.408 8-1.846 13m0 0s-.862 5-25.25 15m8.525 0s2.778-.67 3.778-.917m0 0s.406-.083 2-.396m0 0s2 .15 3-.61m0 .001s.235-.078 2-.673m0 0s1.49-.405 3-.507m0 0s1 .015 2 .236m0 0s1.73.866 2.985 1.866m0 0s1.015.715 1.524 1m1.494 0s-1.003-1.4-1.943-3m0 0s-.623-1-1.06-1.677m0 0s-.59-1.323-1.05-2.323m0 0s-.047-2-.011-3m0 0s.13-1 .476-3m0 0s.258-1 .453-2m0 0s.21-1 .748-3m0 0s.288-1 .408-2m0 0s-.039-1-.024-2.23m0-.001s.198-1.769.436-3.769m0 0s.213-1 .431-2m0 0s.133-.878.822-3m0 0s.266-1 .243-2m0 0s.016-1 .13-2m0 0s.452-2 .671-3m0 0s.21-1 .575-2m0 0s.692-1.062 2.692-1.654m0 0s2-.632 4-.549m0 0l4 .517m0 0s3 .384 5 .548m0-.001s1.114.139 4 .512m0 0s1 .244 3 .44m0 0s1.55.187 4 .602m0 0s2 .448 2.762.585m0 0s2.238.358 4.238.386m0 0s1 .389 3 1.56m0-.001s2-.013 3 .024m0 0s1 .374 2.813 1.031m-.001 0s2.188.927 3.188 1.696m0 0s1.119 1.304 2.285 4.304m0 0s.931 3 1.844 6m0 0s.87 2.66 1.166 6m0 0s.012 4-.234 7m0 0s-.491 4-.816 7m0 0s-.555 3.073-.016 4.073m1.321.073s.349-2.146.45-2.934m0 0s.162-2.212.318-3.212m0 0s.175-1 .38-2m.001 0s.18-2 .258-3m0 0s.043-.31.248-2m0 0s.456-2 .769-3m0 0s.026-.041 1.026-1.117m0 0s2-.614 4-.443m0 0s2-.137 4-.304m0 0s1-.05 3-.017m0 0s1-.018 3 .095m0 0s1 .12 3 .379m0 0s1 .12 3-.363m0 0s1 .025 2 .053m0 0s2 .178 3 .277m0 0s1 .07 3 .29m0-.001s1 .05 3 .07m0 0s1 .026 1.71.081m.001 0s2.289.16 3.289.24m0-.001s1 .202 3 .439m0 0s1 .097 2 .198m0 0s1 .04 2 .178m0 0s2 .882 3 1.394m0 0s1.07.552 2.186 1.552m0 0s1.636 2 2.274 3m0 0s1.063 2 1.24 4m-.001 0s-.99 3-1.851 6m2.104 0s.597-2 .939-3m0 0s.521-1 1.1-2m.001 0s1.008-.863 2.008-1.07m0 .001s1.201.069 3 .323m0 0s2 .28 3 .372M11.458 46.7s2-.044 4-.08m0 0s1-.017 2-.002m0 0s1 0 3 .026m0 0s1-.002 2 .01m0 .001s1 .012 3 .023m0 0s1 .023 1.505.051m0 0s1.495.055 2.495-.009m0 0s2 .058 3 .075m0 0s1 .005 3 .127m0 0s1 .068 2 .132m0 0s1 .028 3 .055m0 0s1 .022 2 .083m0 0s1 .084 3 .243m0 0s1 .005 2 .007m0 0s1 .009 3 .074m0 0s1 .043 2 .073m0 .001l2.754.139m0 0s1.246.08 2.246.137m0 0s1 .059 3 .206m0 0s1 .05 2-.038m0 0s1-.023 3 .12m0 0s1-.027 2-.04m0 0s2 .112 3 .138m0 0s1 .041 2 .093m0 0s2 .102 3 .13m0 0s1 .016 2 .035m0 0l3 .117m0 0s1 .004 2 .017m0 0s2 .063 2.145.085m0 0s1.855.247 2.855.323m0 0s2 .176 3 .406m0 0s1 .147 2 .164m0 0s1.063.107 3 .85m0 0s.504.257 1.712 1.257m0 0s.801 1 1.406 2m0 0s.882 1.855 1.705 4m0 0s.265 1 .923 3m0 0s.325 1 1 3m0 0s.595 2 1.205 4m0 0s.269 1 1.049 2.886m0 0s.177 1.114.93 3.114m0 0s.31 1 1.006 3m0 0s.334 1 1.064 2.944m0 0s.34 1.056 1 2.77m0-.001s.41 1.287 1 2.918m0 0s.282 1.369.749 3.369m0 0s.166 1-.073 3m0 0s-1.157 2-2.853 4m-.001 0s-2.795 3-4.822 5.138m0 0s-2 2.054-5 4.729m0 0s-1.885 2.133-3.216 4.133m0 0s-1.59 2-3.204 4m0 0s-1.58 1.811-3.545 4m0 0s-1.035 1.14-3.035 3.239m0 0s-1.929 1.76-5 3.273m0 0s-14-6.087-33-16.826m0 0s-19-15.8-28-22.144m0 0s-6.793-5.542-11.84-9.542m0 0s-3.292-3-6.16-5.599m0 0s-2.483-2.401-5-4.764m0 0S-6.13 63.73-8.077 61.73m0-.001s-1.465-1.6-2.77-3m-.001 0s-1.619-2-2.579-4m0 0s-1.115-.685-2.386-2m0 0s-.73-1.336 27.27-6.028m92.001 3.961s2-.356 3-.41m0 0s2-.068 3-.052m0 0s1-.03 3-.043m0 0s1-.134 2-.211m0 0s1 .035 3 .191m0 0s1-.103 2-.091m0 0s1 .134 3 .118m0 0s1-.053 2-.025m0 0s1 .005 3-.018m0-.001s1 .086 2 .129m0 0s1 .006 3-.119m0 0s1 .024 2 .092m0 0s1 .043 3 .056m0 0s1-.156 2-.194m0 0s1 .077 3 .047m0-.001s1 .04 2 .086m0 0s1 .04 3 .054m0 0s1-.012 2-.006m0 0s1 .019 3 .038m0 0s1 .003 2 .047m0 0s2 .113 3 .2m0 0s1 .049 2 .084m0 0s1.64.096 2 .143m0 0s2 .163 3 .3m0 0s2 .461 3 .58m0-.001s.246.074 2 1.03m0 0s.894 1.044 1.762 3.044m0 0s.238.758.908 3m0 0s.33 1.594.639 4m0 0s.405 2 .632 3m0 0s.195 2 .483 4m0 0s.302 2 .576 3.907m0 0s.105 1.093.464 3.093m0 0s.482 2 .62 3m0 0s.315 2 .534 3m0 0s.382 1.767.8 4m-.001 0s.253 1 .583 2.717m0 0s.158 1.283.391 3.283m.001 0s.167 1 .516 3m0 0s.151 1 .655 3m0 0s.175 1 .437 2.862m0 0s.128 1.138.362 3.138m0 0s.111 1 .144 3m0 0s-.227 1-1.284 3m0 0s-1.222 1.227-4.222 3.604m0 0s-2.832 1.396-21-5.14m0 .001s-16.358-7.465-28-12.91m0-.001s-8-3.247-22-45.621m73 1.95s2-.24 3-.327m0 0s2-.103 3-.109m0 0s1 .025 2 .003m0 0s2-.065 3 .007m0 0s1 .035 2 .03m0 0s2-.016 3 .04m0-.001s1 .028 2 .017m0 0s2 .022 3 .08m0-.001s1 .062 2 .121m0 0s1 .07 3 .139m0-.001s1 .027 2 .081m0 0s1 .12 3 .237m0 0s1 .032 2 .132m0 0s1 .122 3 .39m0 0s1 .118 2 .15m0 0s.723.129 2 .435m0 0s1.41.694 2.562 1.694m0 0s.742 1 1.454 2m0 0s.975 2 1.401 3m0 0s.583 1.482 1.008 3m0 0s.575 1.492 1.136 3m0 0s.439 1.2 1.125 3m0 0s.357 1 .945 3m.001 0s.34 1 1.076 3m0 0s.292.85.958 3m0 0s.306 1 .627 2m-.001 0s.708 1.694 1.178 3m0 0s.39 1 .669 2m0 0s.727 2 .971 3m0 0s.668 2 .89 2.728m0 0s.283 1.272.887 3.272m0 0s.113.437.663 2m0 0s.45 1.52.84 3m0 0s.288 1 .61 2.418m0 0s.417 1.582.757 2.582m0 0s.211 1 .617 3m0 0s.294 1 .477 2m0 0s.104 2-.277 3m0 0s-1.574 1.262-5.574 2.505m0 0s-5.284.495-10 1.127m0-.001s-6-.221-12-1.555m0 0s-5 .196-10-.963m0 0s-5-1.206-10-2.479m0 0s-4.92-2.634-13-58.75m64 .104s2-.034 3-.085m0 0s2-.035 3-.055m0 0s1-.027 2-.08m0-.001s2-.02 3 .03m0-.001s1-.018 2-.103m0 0s2-.083 3-.085m0 0l2 .014m0 0s2 .046 3 .015m0 0s1-.061 2-.007m0 0s2 .077 3 .055m0 0s1 .027 2 .06m0 0s2 .188 2.124.255m0 0s1.335 1 2.124 2m0 0s.752 1.19 1.526 3m0 0s.448 2 .97 4m0 0s.178 1 .407 3m0 0s.441 2 .787 3m0 0s.613 2 .936 3m0 0s.225 1 .91 3m0 0s.216.747.855 3m0 0s.305 1 .622 2m0 0s.653 2 .739 2.478m0 0s.286 1.522.978 3.522m0 0s.154 1 .461 2m0 0s.457 2 .56 2.59m.001.001s.56 2.409.908 3.409m0 0s.092.458.313 2m0 0s.22 2 .393 3m0 0s.386 1.72.446 2m0 0s.413 2 .77 3m0 0s.24 1 .513 3m-.001 0s.208 1 .527 3m0 0l.225 2m0 0s.028 2 .008 3m0 0s-.625 1-2.102 2.534m0 0s-2 1.295-4 2.471m0 0s-2.016.995-5 2.722m0 0s-2 1.073-4 2.02m0 0s-2 .932-5 2.188m0 0s-1.73 1.065-3 1.809m0 0s-2 .9-4 1.54m0 0s-3 .669-6-.118m0 0s-7.336-8.166-18.401-37.166m0 0s-4.805-14-7.556-22m-.001 0s-1.362-5-2.569-9m0 0s-.27-3 15.527-8.012m40-.047s2-.02 3-.192m0 0s2-.21 3-.279m0 0s1-.036 2 .046m0 0s2 .006 3 .15m0 0s1 .074 2 .061m0 0l3 .16m0-.001s1 .055 2 .18m0 .001s2 .22 3 .373m0 0s1 .086 2 .2m0 .001s2 .12 3 .162m0 0s1 .08 2 .223m0 0s2 .178 3 .322m0 0s1 .188 2 .39m0-.001s1.56.263 3 .593m0 0s1 .578 2 1.522m0 0s.859 1.148 1.283 2.148m-.001 0s.698 2 1.073 4m0 0s.233 1 .547 3m0 0s.3 2 .612 3m0 0s.437 2 .646 3m0 0s.462 2 .84 3.282m0 0s.46 1.718.764 2.718m0 0s.255 1 .907 3m.001 0s.368 1 1.08 3m0 0s.248.637.874 2m0 0s.381 1 1.003 3m0 0s.308 1 .68 2m.001 0s.69 1.155 1.69 2.673m0 0s.784 1.327 1 1.798m0 0s.863 1.529 1.433 2.529m-.001 0s.568.918 1.244 2m0 0s.55 1 1.324 2.356m0 0s.837 1.644 1 1.944m0 0s1 1.529 1.724 2.7m0 0s.276.52 1.19 2m0 0s.484 1 1.086 2.513m0 0s.034 1.487-.589 2.487m.001 0s-1.412 1.51-3.412 3.3m0 .001s-1.918 1.699-3.884 3.699m0 0s-1.116 1.107-3.116 2.907m0 0s-1.353 1.093-3 2.55m0 0s-2 1.447-5.479 1.543m.001 0s-8.285-3-16.522-6.69m0 0s-6-2.279-12-4.864m0 0s-13.633-49.446-12-63.504m46 3.015s2-.074 4-.139m0 0s1-.041 2-.079m0 0s1 .076 3 .18m0-.001s.815.082 2 .172m0 0s1 .05 3 .097m0 0s1 .063 2 .151m0 0s1 .136 3 .42m0 0s1 .12 2 .168m0 0s1 .126 3 .507m0 0s1 .136 2 .196m0 0s1 .094 3 .332m0 0s.34.039 2 .3m0 0s1 .243 3 .61m0 0s.882.129 2 .243m0 0s1 .136 2 .354m0 0s2 .464 2.132.532m0 0s1.196 1 1.868 2.56m0 0s0 1.707-.252 4.44m0 0s-.4 2-.748 4.262m0 0s-.713 2.738-1 3.869m0 0s-.95 2.869-1.637 4.869m0 0s-.363 1.737-.906 4m0 0s-.336 1-.947 3m0 0s-.51 1.635-1.38 4m.001 0s-.131.463-1.041 3m0 0s-.352 1-1.065 3m0 0s-.787 2-1.025 2.764m0 0s-.933 2.236-1.352 3.236m0 0s-.648 1.255-1.537 3m0 0s-.286 1-1.111 2.652m0-.001s-.909 1.349-2 2.366m0 0s-4 .036-8 .06m0 .001s-15-24.753-18-55.121m48 4.934s2-.113 4-.163m0 0s1 .012 2 .028m0 0s1-.011 3 .031m0 0s1 .05 2 .106m0 0s1 .038 2 .148m0 0s2 .134 3 .275m0 0s1 .23 3 .492m0 0s1 .105 1.397.192m0 0s1.603.474 2.603.794m0 0s1 .23 3 1.142m0 0s.181.064 2 .899m0 0s1 .373 2.307 1.165m0 0s.693.478 1.693 1.12m0 .001s1.147.879 2.371 1.879m.001 0s1.018 1 1.782 2m0 0s.846 1.954.954 3m0 0s.015 2-.108 3.649m0 0s-.075 2.351-.14 3.351m.001 0s-.26 2-.45 4m0 0s-.168 2-.24 3m0 0s-.125 2-.252 3m0 0s-.12 2-.3 4m0 0s-.085 1-.34 3m0 0s-.08 1-.18 3m0 0s-.017 1-.167 2m0 0s-.15 2-.234 4m0 0s-.043 1-.052 2m0 0s.01 2 .01 3m-.001 0s-.25 2-.425 3m0 0s-.108 1-.23 2.404m0 0s-.35 1.596-.927 3.596m0 0s-.073.19-.97 2m0 0s-1.062 2-1.62 3m.001 0s-.62 1-1.484 2.234m0 0s-1 1.616-2 3.02m0 0s-1 1.33-2 2.355m0 0s-2 1.253-4 1.332m0 0s-5-1.238-9.907-2.941m-.001 0s-4.47-2-9.092-4.417m0 0s-3.45-1.583-8-4.543m0 0s-4-3.016-7.813-6.04m0 0s-3.187-2.908 13.813-56.11m-262 34.021s2-.049 3 .143m0 0s2 .83 2.358.946m0 0s1.642.722 2.365 1m0 0s1.277.667 2.277 1.064m0 0l2.008.936m0 0s1.992.91 2.248 1m0 0s1.744.828 2.744 1.146m0 0s1 .53 2 .902m0 0s1.894.952 2 1.015m0 0s1.655.937 3 1.27m0-.001s1 .353 1.868.668m0 0s2.03 1 2.132 1.04m0 .001s2 .953 2.01.959m0 0s1.434 1 2.723 2m0 0s1.267.995 1.31 1m0 0s1.957-.08 2.957.12m0 .001s2 .854 2.062.879m0 0s1.938.947 2.938 1.386m0 0s1 .501 2 .826m0-.001s1.962.789 2 .8m0 0s2 .852 2.297.989m0 0s1.703.84 2.703 1.38m0-.001s1 .602 2 1.006m0 0s2 .568 2.096.615m0 0s1.492 1 2.282 2m0 0s.56 1 1.19 3m-.001 0s.267 1 .507 2m0 0s.274 2 .678 4m0 0s.168 1 .322 2m0 0s.277 2 .75 4m0 0s.133 1 .312 2m0 0s.42 2 .616 3m0 0l.535 3m0 0s.332 2 .414 3m0 0s.233 2 .207 3m0 0s-.773 2-1.548 3m0 0s-2.11 2-3.36 3.078m0 0s-2.566 1.922-5 3.907m0 0s-1.321 1.015-3.794 3.015m0 0s-1.334 1-4.206 2.834m0 0s-2 1.152-3 2.828m0 0s-1.502 1.338-2.753 2.338m0 0s-1.358 1-5.247 1.667m0 0s-6-2.43-13.091-5.667m0 0s-6.91-3.751-12.803-7m0 0s-5.106-3.246-9.106-5.471m0 0s-4-2.851-8.396-7.53m0 .001s-3.604-2.32-6.647-5m0 0s-2.957-2.663-5.318-5m0 0s-2.64-2.154-4.64-4.23m.001 0s-2.301-2.77 26-36.858m70 17.712s2-.048 3 .232m0 0s1.192.144 3 .577m0 0s1 .334 2 .481m0 0s1 .21 3 .868m0-.001s1 .211 2 .62m0 0s1 .463 2 .566m0 0s1.183.033 3 .426m0 0s1 .242 2 .42m0 0s1.578.187 3 .442m0 0s1 .255 2 .503m0 0s1 .123 2.609.242m0 0s1.39.129 2.39.192m.001-.001s1 .242 2.546.809m0 0s1.454.056 1.657 0m0 0s1.797-.297 3.797-.31m0 0s1-.044 2-.136m0 0s1-.01 3-.085m0 0s1-.192 2-.246m0 0s1 .085 3-.188m0 0s.144-.035 2-.397m0 0s1-.259 3-.592m0 0s.272-.046 2-.158m0 0s1 .103 2 .43m0 0s1.048.682 2.127 1.682m0 0s.926 1 1.873 2.051m0 0s1 1.16 2 2.285m0 0s1 1.164 2 2.376m0-.001s1 1.226 1.82 2.289m0 0s.18.258 1.18 1.637m0 0s.984 1.363 2 3.244m0 0s.053.119 1 1.982m0 0s.811 2.137 1 2.837m0 .001s.579 2.299.885 3.299m0 0s.168 1 .53 3m.001 0s.568 2 .8 3m0 0s.694 2 .784 2.403m0 0s.489 1.597 1 3.458m0 0s.287 1.139 1 3.034m0 0s.447 1.105.702 2.105m0 0s.298 1.645.688 3m0 0s.61 1.73.993 3m-.001 0s.357 1 .674 2m0 0s.745 2 .944 2.53m0 .001s.564 1.469 1 2.828m0 0s.436 1.641.7 2.641m0 0s.269 2 .103 3m0 0s-1.803 1.625-5.803 2.968m0 0s-6 1.468-11 2.556m0 0s-5.378.476-10 1.822m0 0s-5 .09-14.281-4.346m0 0s-18.72-14.02-28.58-20m0 0s-6.737-4-11.14-5.883m.001 0s-4-2.27-9-22.658m0 0s-2.432-7.459 7-18.834m162 1.29s2-.218 3-.302m0 0s2 .084 3 .156m0 0s1 .12 2 .313m0 0s2 .746 2.392.918m0 0s1.38 1 2.608 1.974m0 0s1 .862 1.211 1.026m.001 0s1.28 1 2.632 2m0 0s1.156.914 2.156 1.68m0-.001s.47.321 1.819 1.321m0 0s1.18.948 2.18 1.622m.001-.001l2 1.306m0 0s1 .639 1.69 1.073m-.001 0s1.31.82 2.31 1.388m.001 0s1.104.612 2.878 1.612m0 0s.122.066 1.419 1m0 0s1.703.813 2.703.9m0 .001s1 .29 2 .737m0 0s1 .37 3 1.295m0 0s.245.067 2 .758m0 0s.871.309 2 .719m0 0s1 .392 2 .677m0 0s2 .626 3 .862m0 0s1 .324 2 .84m0 0s1 .708 1.863 2.211m-.001 0s.218 1 .465 3m0 0s.05 2 .083 3m0 0s.098 2 .188 3m0 0s.032 2-.022 4m0 0s-.093 1-.232 3m0 0s.054 1 .069 3m-.001 0s-.193 1-.412 2.159m0 0s-1 2.477-1.857 3.841m0 0s-1.068 2-2.143 3.958m0 0s-1 1.477-1.933 3.042m0 0s-1.064 2-1.734 3m0 0s-1.18 2-1.794 3m0 0s-1.237 2-1.774 3m0 0s-.765 1.143-2.674 3m.001 0s-3.092.096-9.092-1.165m0 0s-5-1.444-10-2.105m0 .001s-4.335-.731-8.267-1.731m0 0s-3.733-.152-6.733-.432m0 0s-3-.316-6-.427m0 0s-3-.364-5.63-1.141m-.001 0s-2.37-1.13-6.37-4.433m.001 0s-3.843-4.567-5.055-24.567m0 0s-1.645-11 17.055-34.085m-58 3.885s2-.085 2.944.2m0 0s2.056.232 3.056.622m0 0s.879.378 2 .955m0 0s.897.423 2 .856m0 0s1.069.567 3 1.452m0 0s.304.115 2 .945m0 0s.443.17 2 .935m0 0s1 .338 3 1.154m0 0s.163.081 1.893 1.081m0 0s.107.054 2.107.647m0 0s1 .265 2 .575m0-.001s2 .716 2.214.779m0 0s1.786.683 2.642 1m0 0s1.144.331 2.144.753m0 0s1 .424 2.115 1.247m0 0s.885.987 1.695 3m0 0s.16 1 .354 2m0 0s.39 2 .76 4m-.001 0s.077.626.28 3m.001 0s.015 1 .136 3m0 0s.019 1 .224 3m0 0s.12 1 .168 3m0 0s.013 1 .012 3m0 0s-.022 1-.052 2m0 0s-.116 2-.078 3m0 0s-.07 2-.324 3m0 0s-.29 1.387-1.243 3m0 0s-1.852 1-5.136 2m.001 0s-3.884 1-6.912 1.578m0 0s-3 .937-5 1.59m0 0s-2.786.832-6 1.718m0 0s-2 .769-3 1.17m0-.001s-3 .309-5 1.44m0-.001s-1.104.506-4 1.35m0-.001s-1 .32-3 1.126m0 0s-2 .652-3.598 1.03m0 .001s-2.402.681-3.176 1m0 0s-2.226.582-4.063 1m0 0s-1.38 0-4.163-1.92m0 0s-3.106-5.08-6.708-16.08m0 0s-2.272-7-3.89-13m0 0s-1.402-4.82-2.491-9m0 0s-.37-5 29.089-23.2m-111 36.115s2-.037 4-.292m0 0s1 .355 1.056.377m0 0s1.904 1 2.944 1.504m0 0s.916.496 2.754 1.496m0 0s.246.14 1.405 1m0 0s1.5 1 2.84 1.619m.001 0s.807.38 2 .99m0 0s.906.391 2 1.05m0 .001s1 .74 2 1.71m0 0s1 .904 2 1.313m0 0s2 .298 2.038.317m0 0s1.732 1 2.962 1.848m0 0s1 .795 1.462 1.152m0 0s1.34 1 2.538 1.912m0 0s1 .77 1.485 1.088m0 0s1.454 1 2.515 1.912m0 0s1 1.08 1.7 2.088m-.001 0s.3.323 2.3.978m.001 0s1 .66 1.487 1.022m0 0s1.219 1 2.395 2m0 0s1.118.885 2.118 1.598m0 0l1.884 1.402m0 0s1.116.887 2.116 1.713m0 0s.36.287 1.478 1.287m0 0s.936 1 1.64 2m0 0s.6 2 .511 3m0 0s-.418 2-.63 3.231m.001 0s-.379 1.769-.864 3.769m0 0s-.155 1-.978 4m0 0s-.158.793-.841 3m0 0s-.2 1-.698 3m0 0s-.62 1.838-.847 3m0 0s-.669 2-.888 3m0 0s-.747 2-1.24 3m0 0s-.644 1.075-2.505 3m0 0s-4.14.223-11.14-1.445m.001 0s-7-1.856-14-4.53m0-.001s-5-1.467-10.12-4.024m0 0s-7.88-7.955-13.807-15m0 0s-3.36-2-7.073-5.303m0 0s-3-2.676-5.052-4.697m0 0s-2.716-3-4.948-5.943m0 0s-2-2.047 22-24.142m226 9.991s2-.075 3 .135m0 0s2 .78 2.677.959m0 0s1.323.272 2.323.64m0 .001s1.123.359 3 1.133m0 0s.639.226 2 .772m0 0s1 .408 2 .798m0 0s1.542.656 2 .854m0 0s1.226.802 2.7 1.802m0 0s1.3.722 2.3.854m0 0s.85.146 3 1.12m0-.001s.058.027 1.96 1.027m0 0s.04.02 2.04.877m0 0s1 .4 2 .888m0 0s1 .408 2.814 1.235m0 0s.186.068 2.186.94m0 .001s1 .456 2 1.05m0 0s.76 1.009 1.078 2.009m0 0s.15 2 .102 4m0 0s0 2-.002 3m-.001 0s-.038 2-.155 4m0 0s-.152 1-.422 3m0 0s-.177 2-.302 3m0 0s-.23 2-.407 3m.001 0s-.877 2-2.892 2.899m0 0s-7-.585-13-.983m0 0s-6-.793-10-.78m0 0s-3.773-.136-7-.038m0 0s-3-.303-5-.134m0 0s-3 .146-5 .148m0-.001s-2 .056-4-.47m0 0s-3.016-4.641 9-37.735" fill="none" stroke="#000" stroke-width=".505"/>
</svg>
