<svg xmlns="http://www.w3.org/2000/svg" id="Layer_1" data-name="Layer 1" viewBox="0 0 190 190">
  <defs id="defs4">
    <style id="style2">
      .cls-1{fill:#fff;stroke:#000;stroke-miterlimit:10;}
    </style>
  </defs>
  <title id="title6">
    trace
  </title>
  <path class="cls-1" d="M68.25034 189.52308v-20.79842c-2.56887-15.1933-27.37596-19.03242-27.37596-19.03242-12.4841-8.63802-7.1094-19.9922-7.1094-19.9922 2.3698-5.75868 9.95317-3.0425 9.95317-3.0425 8.53128 4.319 1.26073-6.23857 1.26073-6.23857-12.32297-8.15812-8.69243-23.83132-8.69243-23.83132 2.3698-7.99496 10.9011-4.63573 10.9011-4.63573 9.16638 6.0754-.16116-6.71845-.16116-6.71845-6.9388-6.72806-4.569-20.0018-4.569-20.0018 4.1045-9.28107 13.906-6.23857 13.906-6.23857 7.74452 6.0754 2.20866-7.67823 2.20866-7.67823-.16114-11.03747.6351-11.68052.6351-11.68052 6.00035-6.39213 10.73995-5.43235 10.73995-5.43235 7.74453-.048 9.1664 4.63574 9.1664 4.63574a61.55797 62.32806 0 0 1 .6351 13.12018c-3.3177 13.12018 1.89586 8.638 1.89586 8.638 6.32263-5.27877 12.01015 0 12.01015 0 6.32264 8.47486 1.89585 18.07265 1.89585 18.07265-14.2188 21.2783-3.95283 13.27375-3.95283 13.27375 5.84867-2.08272 10.73995 1.60283 10.73995 1.60283 4.7396 10.72074-2.20866 20.79842-2.20866 20.79842-14.8539 17.7559-6.48377 12.31397-6.48377 12.31397 13.2709-.95978 12.95808 5.11562 12.95808 5.11562a13.2709 13.4369 0 0 1-2.84375 12.79386c-5.84867 11.51735-13.906 13.12018-13.906 13.12018-11.68786 2.5626-14.37996 10.24084-14.37996 10.24084v21.59504z" id="path8" fill="#fff" stroke="#000" stroke-width=".95383" stroke-miterlimit="10"/>
</svg>
